# xmcd
#
# Track frame offsets: 
#        150
#        22020
#        45473
#        67564
#        89316
#        108896
#        126903
#        148581
#        172205
#        192159
#        219824
#
# Disc length: 3172 seconds
#
# Revision: 1
# Processed by: cddbd v1.5.2PL0 Copyright (c) Steve Scherf et al.
# Submitted via: ExactAudioCopy v1.0b1
#
DISCID=900c620b
DTITLE=Cam Ly - Pho Hoa - Con Mo Hoang Duong
DYEAR=2001
DGENRE=Vietnamese
TTITLE0=Con mo hoang duong
TTITLE1=Pho hoa
TTITLE2=Gio bac
TTITLE3=Tim lai dau yeu
TTITLE4=Pho cu vang anh
TTITLE5=Lang thang internet
TTITLE6=La ua
TTITLE7=Thuong nho nguoi dung
TTITLE8=Tinh yeu mong manh
TTITLE9=Giac mo mong tim thay
TTITLE10=Bonus track: (New version) Con mo hoang duong
EXTD=
EXTT0=
EXTT1=
EXTT2=
EXTT3=
EXTT4=
EXTT5=
EXTT6=
EXTT7=
EXTT8=
EXTT9=
EXTT10=
PLAYORDER=
